<svg height="511pt" viewBox="-83 0 511 511.99847" width="511pt" xmlns="http://www.w3.org/2000/svg"><path d="m246.433594 252.078125s14.390625 130.566406 87.75 185.644531c7.753906 5.824219 5.496094 18.003906-3.8125 20.734375-11.6875 3.429688-26.515625 6.363281-41.386719 5.484375-9.839844-.582031-18.558594 6.265625-20.238281 15.976563-.886719 5.140625-1.574219 11.132812-1.691406 17.679687-.210938 11.84375-13.648438 18.542969-23.226563 11.578125-38.460937-27.972656-105.644531-96.332031-108.480469-231.867187.996094-.195313 111.085938-25.230469 111.085938-25.230469zm0 0" fill="#00ce8e"/><path d="m276.710938 360.53125c-24.226563-53.59375-30.277344-108.453125-30.277344-108.453125s-110.089844 25.035156-111.082032 25.230469c1.988282 94.96875 35.566407 156.957031 68.71875 195.175781 2.917969-17.9375 9.292969-34.394531 15.679688-47.429687 7.214844-14.734376 18.476562-26.992188 31.996094-36.292969 10.667968-7.339844 19.023437-18.378907 24.964844-28.230469zm0 0" fill="#00a65b"/><path d="m99.597656 252.078125s-14.390625 130.566406-87.746094 185.644531c-7.757812 5.824219-5.496093 18.003906 3.808594 20.734375 11.6875 3.429688 26.515625 6.363281 41.386719 5.484375 9.839844-.582031 18.5625 6.265625 20.238281 15.976563.886719 5.140625 1.574219 11.132812 1.691406 17.679687.210938 11.84375 13.648438 18.542969 23.226563 11.578125 38.460937-27.972656 105.644531-96.332031 108.480469-231.867187-.992188-.195313-111.085938-25.230469-111.085938-25.230469zm0 0" fill="#60daa8"/><path d="m99.597656 252.078125s-5.226562 47.410156-25.425781 97.140625c11.417969 9.605469 29.339844 20.351562 56.574219 27.195312 25.824218 6.488282 41.617187 20.328126 51.210937 33.859376 15.96875-34.566407 27.582031-78.300782 28.722657-132.964844-.988282-.195313-111.082032-25.230469-111.082032-25.230469zm0 0" fill="#00ce8e"/><path d="m339.074219 187.8125-23.546875 22.902344 8.945312 31.574218c3.277344 11.574219-3.652344 23.570313-15.320312 26.507813l-31.835938 8.019531-8.019531 31.835938c-2.9375 11.667968-14.929687 18.597656-26.507813 15.320312l-31.574218-8.945312-22.902344 23.546875c-8.378906 8.613281-22.214844 8.613281-30.589844 0l-22.90625-23.546875-31.574218 8.945312c-11.574219 3.277344-23.570313-3.652344-26.507813-15.320312l-8.015625-31.835938-31.839844-8.019531c-11.664062-2.9375-18.597656-14.933594-15.320312-26.507813l8.949218-31.574218-23.546874-22.902344c-8.613282-8.378906-8.613282-22.214844 0-30.589844l23.546874-22.902344-8.949218-31.578124c-3.277344-11.574219 3.65625-23.570313 15.320312-26.507813l31.839844-8.015625 8.015625-31.839844c2.9375-11.664062 14.933594-18.597656 26.507813-15.316406l31.574218 8.945312 22.902344-23.546874c8.378906-8.613282 22.214844-8.613282 30.589844 0l22.90625 23.546874 31.574218-8.945312c11.574219-3.28125 23.570313 3.652344 26.507813 15.316406l8.015625 31.839844 31.839844 8.015625c11.664062 2.9375 18.597656 14.933594 15.320312 26.507813l-8.949218 31.574218 23.546874 22.90625c8.617188 8.375 8.617188 22.210938.003907 30.589844zm0 0" fill="#76e7e7"/><path d="m273.191406 172.515625c0 55.324219-44.851562 100.171875-100.175781 100.171875s-100.171875-44.847656-100.171875-100.171875 44.847656-100.175781 100.171875-100.175781 100.175781 44.851562 100.175781 100.175781zm0 0" fill="#fffcdc"/><path d="m167.859375 223.265625c-3.367187 0-6.746094-1.097656-9.566406-3.320313l-44.554688-35.148437c-6.703125-5.285156-7.847656-15.003906-2.5625-21.703125 5.285157-6.703125 15.003907-7.847656 21.703125-2.5625l33.8125 26.671875 44.683594-44.339844c6.058594-6.007812 15.84375-5.972656 21.851562.085938 6.011719 6.054687 5.976563 15.839843-.082031 21.851562l-54.394531 53.976563c-2.996094 2.972656-6.933594 4.488281-10.890625 4.488281zm0 0" fill="#f4e74d"/></svg>