<?xml version="1.0" encoding="iso-8859-1"?>
<!-- Generator: Adobe Illustrator 19.0.0, SVG Export Plug-In . SVG Version: 6.00 Build 0)  -->
<svg version="1.1" id="Capa_1" xmlns="http://www.w3.org/2000/svg" xmlns:xlink="http://www.w3.org/1999/xlink" x="0px" y="0px"
	 viewBox="0 0 512 512" style="enable-background:new 0 0 512 512;" xml:space="preserve">
<path style="fill:#455A64;" d="M444.128,229.568L301.312,63.2c1.6-4.8,2.688-9.856,2.688-15.2c0-26.464-21.536-48-48-48
	s-48,21.536-48,48c0,5.344,1.088,10.4,2.688,15.2L67.84,229.6c-5.728,6.688-4.96,16.8,1.728,22.528C72.608,254.72,76.288,256,80,256
	c4.512,0,8.96-1.888,12.128-5.568L230.912,88.768C238.24,93.248,246.784,96,256,96s17.76-2.752,25.056-7.264L419.872,250.4
	c3.168,3.712,7.616,5.6,12.128,5.6c3.68,0,7.392-1.28,10.4-3.872C449.12,246.4,449.92,236.288,444.128,229.568z M240,48
	c0-8.832,7.168-16,16-16s16,7.168,16,16s-7.168,16-16,16S240,56.832,240,48z"/>
<path style="fill:#009688;" d="M496,224H16c-8.832,0-16,7.168-16,16v256c0,8.832,7.168,16,16,16h480c8.832,0,16-7.168,16-16V240
	C512,231.168,504.832,224,496,224z"/>
<g>
	<path style="fill:#FAFAFA;" d="M176,288c-8.832,0-16,7.168-16,16v60.224l-33.696-67.392c-3.328-6.624-10.816-10.24-17.984-8.416
		C101.12,290.112,96,296.608,96,304v128c0,8.832,7.168,16,16,16s16-7.168,16-16v-60.224l33.696,67.36
		C164.448,444.672,170.048,448,176,448c1.216,0,2.464-0.128,3.68-0.448c7.2-1.664,12.32-8.16,12.32-15.552V304
		C192,295.168,184.832,288,176,288z"/>
	<path style="fill:#FAFAFA;" d="M272,320c8.832,0,16-7.168,16-16s-7.168-16-16-16h-32c-8.832,0-16,7.168-16,16v128
		c0,8.832,7.168,16,16,16h32c8.832,0,16-7.168,16-16s-7.168-16-16-16h-16v-32h16c8.832,0,16-7.168,16-16s-7.168-16-16-16h-16v-32
		H272z"/>
	<path style="fill:#FAFAFA;" d="M400,288c-8.832,0-16,7.168-16,16v60.224l-1.696-3.36c-5.44-10.816-23.2-10.816-28.64,0l-1.664,3.36
		V304c0-8.832-7.168-16-16-16s-16,7.168-16,16v128c0,7.392,5.088,13.888,12.32,15.552c7.328,1.856,14.688-1.792,18.016-8.416
		l17.696-35.36l17.696,35.36c2.72,5.536,8.288,8.864,14.272,8.864c1.216,0,2.432-0.128,3.68-0.448
		c7.232-1.664,12.32-8.16,12.32-15.552V304C416,295.168,408.832,288,400,288z"/>
</g>
<g>
</g>
<g>
</g>
<g>
</g>
<g>
</g>
<g>
</g>
<g>
</g>
<g>
</g>
<g>
</g>
<g>
</g>
<g>
</g>
<g>
</g>
<g>
</g>
<g>
</g>
<g>
</g>
<g>
</g>
</svg>
