<svg id="Capa_1" enable-background="new 0 0 511.998 511.998" height="512" viewBox="0 0 511.998 511.998" width="512" xmlns="http://www.w3.org/2000/svg"><g><g><path d="m255.995 214.81c-4.268 0-7.726-3.459-7.726-7.726v-37.672c0-4.267 3.459-7.726 7.726-7.726s7.726 3.459 7.726 7.726v37.672c.001 4.267-3.458 7.726-7.726 7.726z" fill="#f4dd45"/><path d="m255.995 214.81c-4.268 0-7.726-3.459-7.726-7.726v-37.672c0-4.267 3.459-7.726 7.726-7.726s7.726 3.459 7.726 7.726v37.672c.001 4.267-3.458 7.726-7.726 7.726z" fill="#f4dd45"/><g><path d="m211.003 218.442c-3.457 0-6.604-2.337-7.487-5.842l-5.67-22.518c-1.041-4.138 1.469-8.337 5.607-9.379 4.136-1.041 8.336 1.468 9.379 5.606l5.67 22.518c1.041 4.138-1.469 8.337-5.607 9.379-.632.16-1.267.236-1.892.236z" fill="#f4dd45"/></g><g><path d="m300.985 218.442c-.626 0-1.262-.076-1.895-.236-4.138-1.043-6.646-5.243-5.603-9.381l5.678-22.517c1.043-4.138 5.247-6.644 9.381-5.603 4.138 1.044 6.646 5.243 5.603 9.381l-5.678 22.517c-.883 3.503-4.03 5.839-7.486 5.839z" fill="#f4dd45"/></g></g><g><g><path d="m69.03 439.36c-3.079 0-5.991-1.854-7.189-4.893-1.566-3.97.382-8.457 4.352-10.022l35.044-13.823c3.969-1.565 8.457.382 10.022 4.352 1.566 3.97-.382 8.457-4.352 10.022l-35.044 13.823c-.931.367-1.89.541-2.833.541z" fill="#f4dd45"/><path d="m69.03 439.36c-3.079 0-5.991-1.854-7.189-4.893-1.566-3.97.382-8.457 4.352-10.022l35.044-13.823c3.969-1.565 8.457.382 10.022 4.352 1.566 3.97-.382 8.457-4.352 10.022l-35.044 13.823c-.931.367-1.89.541-2.833.541z" fill="#f4dd45"/><g><path d="m105.093 479.589c-2.404 0-4.775-1.119-6.284-3.223-2.488-3.467-1.693-8.294 1.774-10.782l18.868-13.537c3.468-2.487 8.294-1.694 10.782 1.774 2.488 3.467 1.693 8.294-1.774 10.782l-18.868 13.537c-1.364.978-2.939 1.449-4.498 1.449z" fill="#f4dd45"/></g><g><path d="m67.903 385.338c-3.826 0-7.148-2.84-7.652-6.735-.548-4.232 2.439-8.106 6.67-8.654l23.029-2.98c4.235-.547 8.106 2.438 8.654 6.671.548 4.232-2.439 8.106-6.67 8.654l-23.029 2.98c-.337.042-.671.064-1.002.064z" fill="#f4dd45"/></g></g><g><path d="m442.967 439.36c-.944 0-1.902-.174-2.833-.541l-35.044-13.823c-3.97-1.566-5.919-6.053-4.352-10.022 1.565-3.97 6.055-5.917 10.022-4.352l35.044 13.823c3.97 1.566 5.919 6.053 4.352 10.022-1.198 3.038-4.11 4.893-7.189 4.893z" fill="#f4dd45"/><path d="m442.967 439.36c-.944 0-1.902-.174-2.833-.541l-35.044-13.823c-3.97-1.566-5.919-6.053-4.352-10.022 1.565-3.97 6.055-5.917 10.022-4.352l35.044 13.823c3.97 1.566 5.919 6.053 4.352 10.022-1.198 3.038-4.11 4.893-7.189 4.893z" fill="#f4dd45"/><g><path d="m406.903 479.589c-1.56 0-3.134-.471-4.498-1.449l-18.868-13.537c-3.467-2.487-4.262-7.315-1.774-10.782 2.489-3.469 7.316-4.26 10.782-1.774l18.868 13.537c3.467 2.487 4.262 7.315 1.774 10.782-1.509 2.103-3.879 3.223-6.284 3.223z" fill="#f4dd45"/></g><g><path d="m444.094 385.338c-.331 0-.665-.021-1.002-.065l-23.029-2.98c-4.231-.548-7.218-4.422-6.67-8.654.547-4.233 4.422-7.219 8.654-6.671l23.029 2.98c4.231.548 7.218 4.422 6.67 8.654-.504 3.896-3.827 6.736-7.652 6.736z" fill="#f4dd45"/></g></g></g><g><path d="m409.171 123.746c-10.553 10.964-25.05 17.81-40.698 18.599-4.652.238-9.41-.058-14.185-.945-15.517-2.868-28.559-11.399-37.386-23.061-5.531-7.314-3.608-17.711 4.175-22.552 6.476-4.035 13.717-6.862 21.376-8.243 7.01-1.257 14.358-1.29 21.779.082 20.867 3.854 37.247 17.941 44.939 36.12z" fill="#f4dd45"/><path d="m368.473 142.345c-4.652.238-9.41-.058-14.185-.945-15.517-2.868-28.559-11.399-37.386-23.061-5.531-7.314-3.608-17.711 4.175-22.552 6.476-4.035 13.717-6.862 21.376-8.243l.008.008c-12.804 12.804-.394 50.889 25.987 54.793z" fill="#eab14d"/><path d="m392.759 259.73c-19.174-4.66-35.718-18.566-42.884-38.529-5.391-15.015-4.512-30.746 1.29-44.347 3.444-8.095 13.174-11.588 20.99-7.536.066.033.14.074.205.107 13.026 6.821 23.628 18.368 28.987 33.293 7.167 19.971 3.246 41.216-8.588 57.012z" fill="#f4dd45"/><path d="m392.759 259.73c-19.174-4.66-35.718-18.566-42.884-38.529-5.391-15.015-4.512-30.746 1.29-44.347 3.444-8.095 13.174-11.588 20.99-7.536.066.033.14.074.205.107-6.049 18.689-15.393 63.126 20.399 90.305z" fill="#eab14d"/><path d="m294.098 359.121c-6.436 0-12.41-4.124-14.465-10.584-2.541-7.985 1.867-16.517 9.847-19.066.32-.103 32.443-10.564 63.844-33.613 40.235-29.533 60.636-65.091 60.636-105.688 0-34.142-7.653-63.93-22.746-88.538-12.116-19.753-26.302-31.806-36.07-38.439-6.937-4.711-8.742-14.154-4.031-21.091s14.154-8.742 21.091-4.031c21.685 14.726 72.122 59.026 72.122 152.098 0 50.355-25.508 95.551-73.765 130.702-35.344 25.745-70.383 37.061-71.857 37.53-1.53.489-3.081.72-4.606.72z" fill="#f4dd45"/><path d="m294.099 348.538c-2.541-7.985 1.867-16.517 9.847-19.067.32-.103 32.443-10.564 63.844-33.613 40.235-29.533 60.636-65.091 60.636-105.688 0-34.142-7.653-63.93-22.746-88.538-14.891-24.277-32.909-36.924-42.009-42.172 0 0-7.37-4.433-15.149-9.53-.231 5.095 2.093 10.187 6.622 13.263 9.768 6.633 23.955 18.687 36.07 38.439 15.093 24.608 22.746 54.396 22.746 88.538 0 40.597-20.401 76.155-60.636 105.688-31.401 23.049-63.524 33.51-63.844 33.613-7.98 2.55-12.388 11.082-9.847 19.067 2.055 6.46 8.029 10.584 14.465 10.584 1.525 0 3.077-.232 4.608-.719.225-.071 1.231-.396 2.894-.983-3.454-1.785-6.229-4.885-7.501-8.882z" fill="#eab14d"/><path d="m475.33 85.284c-4.257 13.709-12.928 24.836-23.974 32.291-5.268 3.567-11.07 6.287-17.201 8.062-12.5-15.27-17.341-36.326-11.046-56.585 4.356-14.029 13.33-25.346 24.738-32.8.978-.641 1.973-1.249 2.983-1.833 7.627-4.389 17.497-1.323 21.294 6.616 6.379 13.33 7.94 29.02 3.206 44.249z" fill="#f4dd45"/><path d="m451.357 117.574c-5.268 3.567-11.07 6.287-17.201 8.062-12.5-15.27-17.341-36.326-11.046-56.585 4.356-14.029 13.33-25.346 24.738-32.8-16.602 13.422-12.345 69.571 3.509 81.323z" fill="#eab14d"/><path d="m497.052 191.114c-4.693 5.383-10.117 9.739-16.001 13.043-11.605 6.534-24.984 8.999-37.961 7.257-5.276-19.018-1.208-40.238 12.73-56.231 8.399-9.64 19.174-15.993 30.696-18.935 2.844-.731 5.728-1.249 8.638-1.562 8.753-.937 16.544 5.852 16.815 14.654.46 14.767-4.438 29.75-14.917 41.774z" fill="#f4dd45"/><path d="m481.042 204.156h.008c-11.605 6.534-24.984 8.999-37.961 7.257-5.276-19.018-1.208-40.238 12.73-56.231 8.399-9.64 19.174-15.993 30.696-18.935-30.695 18.935-28.493 59.157-5.473 67.909z" fill="#eab14d"/><path d="m488.759 281.509c-7.602 12.681-19.815 22.642-35.126 27.105-9.903 2.885-19.955 3.131-29.398 1.159-9.969-2.088-19.256-6.657-26.981-13.215 5.827-18.853 20.711-34.518 41.076-40.452 6.386-1.857 12.837-2.63 19.141-2.4 8.81.304 17.341 2.531 25.042 6.394 7.874 3.937 10.767 13.865 6.246 21.409z" fill="#f4dd45"/><path d="m424.236 309.773c-9.969-2.088-19.256-6.657-26.981-13.215 5.827-18.853 20.711-34.518 41.076-40.452 6.386-1.857 12.837-2.63 19.141-2.4-29.226 1.241-39.236 36.425-33.236 56.067z" fill="#eab14d"/><path d="m102.827 123.746c10.553 10.964 25.05 17.81 40.698 18.599 4.652.238 9.41-.058 14.185-.945 15.517-2.868 28.559-11.399 37.386-23.061 5.531-7.314 3.608-17.711-4.175-22.552-6.476-4.035-13.717-6.862-21.376-8.243-7.01-1.257-14.358-1.29-21.779.082-20.867 3.854-37.246 17.941-44.939 36.12z" fill="#f4dd45"/><path d="m143.525 142.345c4.652.238 9.41-.058 14.185-.945 15.517-2.868 28.559-11.399 37.386-23.061 5.531-7.314 3.608-17.711-4.175-22.552-6.476-4.035-13.717-6.862-21.376-8.243l-.008.008c12.804 12.804.394 50.889-25.987 54.793z" fill="#eab14d"/><path d="m119.24 259.73c19.174-4.66 35.718-18.566 42.884-38.529 5.391-15.015 4.512-30.746-1.29-44.347-3.444-8.095-13.174-11.588-20.99-7.536-.066.033-.14.074-.205.107-13.026 6.821-23.628 18.368-28.987 33.293-7.168 19.971-3.247 41.216 8.588 57.012z" fill="#f4dd45"/><path d="m119.24 259.73c19.174-4.66 35.718-18.566 42.884-38.529 5.391-15.015 4.512-30.746-1.29-44.347-3.444-8.095-13.174-11.588-20.99-7.536-.066.033-.14.074-.205.107 6.048 18.689 15.392 63.126-20.399 90.305z" fill="#eab14d"/><path d="m217.901 359.121c6.436 0 12.41-4.124 14.465-10.584 2.541-7.985-1.867-16.517-9.847-19.066-.32-.103-32.443-10.564-63.844-33.613-40.235-29.533-60.636-65.091-60.636-105.688 0-34.142 7.653-63.93 22.746-88.538 12.116-19.753 26.302-31.806 36.07-38.439 6.937-4.711 8.742-14.154 4.031-21.091s-14.154-8.742-21.091-4.031c-21.686 14.727-72.124 59.027-72.124 152.099 0 50.355 25.508 95.551 73.765 130.702 35.344 25.745 70.383 37.061 71.857 37.53 1.531.488 3.083.719 4.608.719z" fill="#f4dd45"/><path d="m217.899 348.538c2.541-7.985-1.867-16.517-9.847-19.067-.32-.103-32.443-10.564-63.844-33.613-40.235-29.533-60.636-65.091-60.636-105.688 0-34.142 7.653-63.93 22.746-88.538 14.891-24.277 32.909-36.924 42.009-42.172 0 0 7.37-4.433 15.149-9.53.231 5.095-2.093 10.187-6.622 13.263-9.768 6.633-23.955 18.687-36.07 38.439-15.093 24.608-22.746 54.396-22.746 88.538 0 40.597 20.401 76.155 60.636 105.688 31.401 23.049 63.524 33.51 63.844 33.613 7.98 2.55 12.388 11.082 9.847 19.067-2.055 6.46-8.029 10.584-14.465 10.584-1.525 0-3.077-.232-4.608-.719-.225-.071-1.231-.396-2.894-.983 3.455-1.785 6.229-4.885 7.501-8.882z" fill="#eab14d"/><path d="m36.668 85.284c4.257 13.709 12.928 24.836 23.974 32.291 5.268 3.567 11.07 6.287 17.201 8.062 12.5-15.27 17.341-36.326 11.046-56.585-4.356-14.029-13.33-25.346-24.738-32.8-.978-.641-1.973-1.249-2.983-1.833-7.627-4.389-17.497-1.323-21.294 6.616-6.379 13.33-7.94 29.02-3.206 44.249z" fill="#f4dd45"/><path d="m60.641 117.574c5.268 3.567 11.07 6.287 17.201 8.062 12.5-15.27 17.341-36.326 11.046-56.585-4.356-14.029-13.33-25.346-24.738-32.8 16.602 13.422 12.345 69.571-3.509 81.323z" fill="#eab14d"/><path d="m14.946 191.114c4.693 5.383 10.117 9.739 16.001 13.043 11.605 6.534 24.984 8.999 37.961 7.257 5.276-19.018 1.208-40.238-12.731-56.231-8.399-9.64-19.174-15.993-30.696-18.935-2.844-.731-5.728-1.249-8.638-1.562-8.753-.937-16.544 5.852-16.815 14.654-.459 14.767 4.44 29.75 14.918 41.774z" fill="#f4dd45"/><path d="m30.956 204.156h-.008c11.605 6.534 24.984 8.999 37.961 7.257 5.276-19.018 1.208-40.238-12.731-56.231-8.399-9.64-19.174-15.993-30.696-18.935 30.697 18.935 28.494 59.157 5.474 67.909z" fill="#eab14d"/><path d="m23.239 281.509c7.602 12.681 19.815 22.642 35.126 27.105 9.903 2.885 19.955 3.131 29.398 1.159 9.969-2.088 19.256-6.657 26.981-13.215-5.827-18.853-20.711-34.518-41.076-40.452-6.386-1.857-12.837-2.63-19.141-2.4-8.81.304-17.341 2.531-25.042 6.394-7.873 3.937-10.766 13.865-6.246 21.409z" fill="#f4dd45"/><path d="m87.763 309.773c9.969-2.088 19.256-6.657 26.981-13.215-5.827-18.853-20.711-34.518-41.076-40.452-6.386-1.857-12.837-2.63-19.141-2.4 29.225 1.241 39.235 36.425 33.236 56.067z" fill="#eab14d"/></g><g><path d="m334.129 386.278c-5.305 5.151-7.716 12.599-6.459 19.882l6.747 39.392c3.152 18.347-16.111 32.346-32.593 23.683l-35.375-18.604c-6.541-3.441-14.36-3.441-20.901 0l-35.385 18.604c-16.482 8.663-35.735-5.336-32.583-23.683l6.747-39.392c1.257-7.283-1.164-14.731-6.459-19.882l-28.627-27.906c-13.32-12.99-5.964-35.632 12.465-38.311l39.547-5.748c7.314-1.061 13.639-5.655 16.915-12.279l17.687-35.849c4.028-8.159 11.764-12.32 19.583-12.506.185-.01.371-.01.556-.01 8.014 0 16.019 4.162 20.149 12.516l17.688 35.849c3.276 6.624 9.601 11.218 16.915 12.279l39.557 5.748c18.419 2.678 25.774 25.321 12.444 38.311z" fill="#f4dd45"/><path d="m255.437 253.68c-23.209.979-9.879 63.363-29.462 79.052-19.737 15.802-27.916 24.157-14.968 50.332 12.949 26.186-28.741 71.646-.845 86.171-16.482 8.663-35.735-5.336-32.583-23.683l6.747-39.392c1.257-7.283-1.164-14.731-6.459-19.882l-28.627-27.906c-13.32-12.99-5.964-35.632 12.465-38.311l39.547-5.748c7.314-1.061 13.639-5.655 16.915-12.279l17.687-35.849c4.028-8.158 11.764-12.32 19.583-12.505z" fill="#eab14d"/></g></g></svg>